<?xml version="1.0" encoding="UTF-8"?>
<svg width="14px" height="14px" viewBox="0 0 14 14" version="1.1" xmlns="http://www.w3.org/2000/svg" xmlns:xlink="http://www.w3.org/1999/xlink">
    <!-- Generator: Sketch 52.2 (67145) - http://www.bohemiancoding.com/sketch -->
    <title>ic_auto</title>
    <desc>Created with Sketch.</desc>
    <defs>
        <rect id="path-1" x="2.14285714" y="0.357142857" width="8.57142857" height="17.1428571"></rect>
        <rect id="path-3" x="10.9285714" y="1.78571429" width="6.42857143" height="15.7142857"></rect>
    </defs>
    <g id="Symbols" stroke="none" stroke-width="1" fill="none" fill-rule="evenodd">
        <g id="atom/ic/auto-copy" transform="translate(-3.000000, -3.000000)">
            <circle id="Oval" fill="#A6A5C2" opacity="0.1" cx="10" cy="10" r="10"></circle>
            <mask id="mask-2" fill="white">
                <use xlink:href="#path-1"></use>
            </mask>
            <!--<g id="Rectangle-9" fill-rule="nonzero"></g>-->
            <g id="Oval-23-+-Group-Copy" mask="url(#mask-2)">
                <g transform="translate(3.571429, 4.285714)">
                    <path d="M6.37912079,2.67857143 C4.6509551,2.67857143 3.25,4.07952652 3.25,5.80769221 C3.25,7.5358579 4.6509551,8.936813 6.37912079,8.936813" id="Oval-23" fill="#7067CC"></path>
                    <g id="Group" stroke-width="1" fill="#7067CC" stroke-linecap="round">
                        <g id="Line-9-+-Line-5" transform="translate(1.142857, 5.623626) rotate(-270.000000) translate(-1.142857, -5.623626) translate(0.642857, 4.623626)" fill="#7067CC" stroke="#7067CC" stroke-width="1.08809998">
                            <path d="M0.590659396,0.410714286 L0.590659396,1.81181319" id="Line-5"></path>
                        </g>
                        <g id="Line-9-+-Line-6" transform="translate(2.549493, 1.916205) rotate(-225.000000) translate(-2.549493, -1.916205) translate(2.049493, 0.416205)" fill="#7067CC" stroke="#7067CC" stroke-width="1.08809998">
                            <path d="M0.54374118,0.726015088 L0.54374118,2.12711399" id="Line-5"></path>
                        </g>
                        <g id="Line-9-+-Line-7" transform="translate(2.894381, 9.216500) rotate(-135.000000) translate(-2.894381, -9.216500) translate(2.394381, 7.716500)" stroke="#7067CC" stroke-width="1.08809998">
                            <path d="M0.500000034,0.565685566 L0.500000034,2.06568532" id="Line-5"></path>
                        </g>
                    </g>
                </g>
            </g>
            <path d="M9.85714291,4.04532967 L9.85714291,5.44642857" id="Line" stroke="#7067CC" stroke-width="1.08809998" stroke-linecap="round" mask="url(#mask-2)"></path>
            <path d="M9.85714286,14.625 L9.85714286,16.0260986" id="Line-4" stroke="#7067CC" stroke-width="1.08809998" stroke-linecap="round" mask="url(#mask-2)"></path>
            <mask id="mask-4" fill="white">
                <use xlink:href="#path-3"></use>
            </mask>
            <!--<g id="Rectangle-8" fill-rule="nonzero"></g>-->
            <path d="M11.4238506,9.31537508 L13.385103,8.24595267 L13.8634954,6.49016483 C13.9190661,6.28621014 14.1374948,6.16685114 14.3514808,6.22316089 C14.5669587,6.27986323 14.6939281,6.49030854 14.6384072,6.6940805 L14.3604866,7.7141001 L16.2577442,6.5748903 C16.4488005,6.47071201 16.6938291,6.53372334 16.8067775,6.71848726 C16.9189439,6.90197195 16.8570704,7.13403503 16.6639346,7.23934716 L14.7680429,8.37781226 L15.8401585,8.65993618 C16.0549638,8.71646153 16.1838723,8.92690001 16.1285135,9.1300768 C16.0727688,9.3346701 15.8542996,9.45217912 15.6396867,9.39570442 L13.7926592,8.90966482 L11.7931755,9.99993383 L13.8117314,11.1006024 L15.637381,10.6201883 C15.8519938,10.5637136 16.0704631,10.6812227 16.1262078,10.885816 C16.1815665,11.0889927 16.052658,11.2994312 15.8378528,11.3559566 L14.787115,11.632455 L16.6636824,12.7603829 C16.8547387,12.8645612 16.9194736,13.0964789 16.8065252,13.2812428 C16.6943588,13.4647275 16.4506276,13.5301519 16.2574919,13.4248398 L14.369894,12.2908971 L14.6462569,13.3051998 C14.7017778,13.5089718 14.5748083,13.7194171 14.3593305,13.7761194 C14.1453444,13.8324292 13.9269157,13.7130702 13.871345,13.5091155 L13.3945103,11.7590446 L11.4238506,10.6844926 L11.4238506,12.8705067 L12.8005723,14.1396839 C12.9604941,14.2871133 12.9607292,14.5254484 12.8014173,14.6723155 C12.6409947,14.8202064 12.3834314,14.8188337 12.2236529,14.6715365 L11.4238506,13.9342119 L11.4238506,16.1941661 C11.4238506,16.4025226 11.2427787,16.571429 11.0159069,16.571429 C10.7906059,16.571429 10.6079633,16.4047903 10.6079633,16.1941661 L10.6079633,13.9357013 L9.80977664,14.6715365 C9.64985478,14.8189658 9.39132412,14.8191825 9.23201222,14.6723155 C9.07158962,14.5244245 9.07307863,14.2869812 9.23285721,14.1396839 L10.6079633,12.8719962 L10.6079633,10.6462007 L8.54557668,11.7707691 L8.07327625,13.5041984 C8.01775533,13.7079704 7.80076868,13.8279047 7.5852908,13.7712024 C7.3713048,13.7148926 7.24279368,13.5042375 7.29836438,13.3002828 L7.57019303,12.3026217 L5.6936257,13.4305496 C5.50256937,13.5347279 5.25754078,13.4717166 5.14459237,13.2869527 C5.03242597,13.103468 5.09429948,12.8714049 5.28743521,12.7660928 L7.17503314,11.6321501 L6.1067685,11.3510395 C5.89215566,11.2945648 5.76266876,11.0854922 5.81841346,10.8808989 C5.87377221,10.6777221 6.09243498,10.5587459 6.30724027,10.6152713 L8.15041678,11.1002975 L10.1684135,9.99993383 L8.1598241,8.90469971 L6.31062653,9.39131036 C6.09582124,9.44783571 5.87715847,9.32885953 5.82179972,9.12568274 C5.76605502,8.92108944 5.89554192,8.71201683 6.11015476,8.65554212 L7.18444045,8.37284714 L5.28718295,7.23363734 C5.09612662,7.12945905 5.0313917,6.89754135 5.14434011,6.71277743 C5.25650652,6.52929274 5.50023771,6.46386834 5.69337344,6.56918047 L7.58926519,7.70764557 L7.31190602,6.68968645 C7.25633532,6.48573176 7.38484644,6.27507659 7.59883244,6.21876684 C7.81431032,6.1620645 8.03129697,6.28199881 8.08681789,6.48577077 L8.56464883,8.23949813 L10.6079633,9.35366695 L10.6079633,7.14978759 L9.24877298,5.89677231 C9.0889944,5.74947506 9.08750539,5.51203172 9.24792799,5.36414076 C9.40723989,5.21727373 9.66577055,5.21749041 9.82569241,5.36491975 L10.6079633,6.08608246 L10.6079633,3.84869195 C10.6079633,3.64033537 10.7890351,3.471429 11.0159069,3.471429 C11.241208,3.471429 11.4238506,3.63806768 11.4238506,3.84869195 L11.4238506,6.09811188 L12.2191702,5.36491975 C12.3789488,5.2176225 12.636512,5.2162498 12.7969346,5.36414076 C12.9562465,5.51100779 12.9560115,5.74934298 12.7960896,5.89677231 L11.4238506,7.16181701 L11.4238506,9.31537508 Z" id="Rectangle-68-Copy" fill="#7067CC" mask="url(#mask-4)"></path>
        </g>
    </g>
</svg>