<?xml version="1.0" encoding="UTF-8"?>
<svg width="12px" height="12px" viewBox="0 0 12 12" version="1.1" xmlns="http://www.w3.org/2000/svg" xmlns:xlink="http://www.w3.org/1999/xlink">
    <!-- Generator: Sketch 52.2 (67145) - http://www.bohemiancoding.com/sketch -->
    <title>Rectangle 68</title>
    <desc>Created with Sketch.</desc>
    <g id="Symbols" stroke="none" stroke-width="1" fill="none" fill-rule="evenodd">
        <path d="M6.38776409,5.35323305 L8.08452191,4.37360946 L8.49839825,2.7652542 C8.54647468,2.57842548 8.73544611,2.46908898 8.92057395,2.52067044 C9.10699247,2.57261151 9.21683883,2.76538584 9.16880547,2.95204718 L8.92836527,3.88641628 L10.5697585,2.84286531 C10.735049,2.74743482 10.947033,2.80515512 11.0447492,2.97440451 C11.1417888,3.1424821 11.0882596,3.35505896 10.9211701,3.45152809 L9.28095845,4.49439688 L10.2084885,4.752831 C10.3943251,4.80460995 10.505849,4.99737803 10.457956,5.18349417 C10.409729,5.37090788 10.2207225,5.47854973 10.0350524,5.42681718 L8.4371151,4.98159007 L6.70728183,5.98030977 L8.45361518,6.9885558 L10.0330576,6.54848184 C10.2187277,6.49674928 10.4077342,6.60439113 10.4559612,6.79180484 C10.5038542,6.97792099 10.3923303,7.17068906 10.2064937,7.22246801 L9.29745854,7.47574898 L10.9209519,8.50896544 C11.0862424,8.60439593 11.1422471,8.81683963 11.044531,8.98608902 C10.9474913,9.15416661 10.7366297,9.21409735 10.5695403,9.11762822 L8.93650391,8.07890211 L9.17559651,9.00803434 C9.22362988,9.19469567 9.11378352,9.38747 8.927365,9.43941108 C8.74223716,9.49099254 8.55326573,9.38165604 8.5051893,9.19482732 L8.09266056,7.59170892 L6.38776409,6.60738648 L6.38776409,8.6098422 L7.57882105,9.77244725 C7.71717583,9.90749703 7.71737917,10.1258193 7.57955208,10.260354 C7.44076409,10.3958267 7.21793583,10.3945692 7.079705,10.2596404 L6.38776409,9.58422857 L6.38776409,11.6544156 C6.38776409,11.8452766 6.23111162,12 6.03483575,12 C5.83991881,12 5.68190741,11.8473539 5.68190741,11.6544156 L5.68190741,9.58559293 L4.99136424,10.2596404 C4.85300946,10.3946902 4.62934425,10.3948887 4.49151716,10.260354 C4.35272917,10.1248814 4.35401737,9.90737603 4.4922482,9.77244725 L5.68190741,8.61120655 L5.68190741,6.57230996 L3.89765435,7.60244895 L3.48904839,9.19032316 C3.44101502,9.3769845 3.2532912,9.48684799 3.06687268,9.43490692 C2.88174484,9.38332546 2.77056473,9.1903589 2.81864117,9.00353018 L3.053811,8.08964214 L1.43031763,9.12285859 C1.26502717,9.21828908 1.05304315,9.16056878 0.955326968,8.99131939 C0.858287329,8.82324181 0.911816577,8.61066494 1.07890601,8.51419581 L2.71194238,7.4754697 L1.78774397,7.21796385 C1.60207383,7.16623129 1.49004954,6.97471439 1.53827651,6.78730068 C1.58616958,6.60118454 1.77534348,6.49219873 1.96118011,6.54397768 L3.55578574,6.98827651 L5.30163536,5.98030977 L3.56392439,4.97704187 L1.9641097,5.42279208 C1.77827306,5.47457103 1.58909917,5.36558522 1.5412061,5.17946908 C1.49297913,4.99205537 1.60500342,4.80053847 1.79067356,4.74880591 L2.72008103,4.48984868 L1.07868777,3.44629772 C0.91339731,3.35086723 0.857392546,3.13842353 0.955108727,2.96917414 C1.05214837,2.80109655 1.26300996,2.74116581 1.43009939,2.83763494 L3.07031108,3.88050373 L2.83035658,2.94802209 C2.78228015,2.76119337 2.89346026,2.5682268 3.0785881,2.51664535 C3.26500662,2.46470427 3.45273044,2.57456777 3.5007638,2.7612291 L3.91415444,4.36769691 L5.68190741,5.38830957 L5.68190741,3.36948879 L4.50601757,2.22168853 C4.36778674,2.08675975 4.36649853,1.8692544 4.50528653,1.73378177 C4.64311362,1.59924708 4.86677883,1.59944557 5.00513361,1.73449534 L5.68190741,2.39510241 L5.68190741,0.345584379 C5.68190741,0.154723397 5.83855989,0 6.03483575,0 C6.22975269,0 6.38776409,0.152646121 6.38776409,0.345584379 L6.38776409,2.40612172 L7.07582688,1.73449534 C7.21405771,1.59956656 7.43688596,1.59830913 7.57567396,1.73378177 C7.71350105,1.86831645 7.7132977,2.08663876 7.57494292,2.22168853 L6.38776409,3.3805081 L6.38776409,5.35323305 Z" id="Rectangle-68" fill="#A6A5C2"></path>
    </g>
</svg>