<?xml version="1.0" encoding="UTF-8"?>
<svg width="12px" height="12px" viewBox="0 0 12 12" version="1.1" xmlns="http://www.w3.org/2000/svg" xmlns:xlink="http://www.w3.org/1999/xlink">
    <!-- Generator: Sketch 52.2 (67145) - http://www.bohemiancoding.com/sketch -->
    <title>Group 3</title>
    <desc>Created with Sketch.</desc>
    <g id="Symbols" stroke="none" stroke-width="1" fill="none" fill-rule="evenodd">
        <g id="atom/ic/heat-copy" transform="translate(-4.000000, -4.000000)">
            <g id="Group-3" transform="translate(4.500000, 4.500000)">
                <g id="Oval-23-+-Group" transform="translate(0.500000, 0.500000)">
                    <circle id="Oval-23" fill="#F64F69" cx="5.076923" cy="5.076923" r="2.576923"></circle>
                    <g id="Group" stroke="#F64F69" stroke-linecap="round" stroke-width="1.08809998">
                        <path d="M5,0.0961538462 L5,1.25" id="Line"></path>
                        <path d="M5,8.75 L5,9.90384615" id="Line-4"></path>
                        <g id="Line-9-+-Line-5" transform="translate(5.205882, 5.101810) rotate(-270.000000) translate(-5.205882, -5.101810) translate(4.705882, 0.101810)">
                            <path d="M0.326923077,0.0961538462 L0.326923077,1.25" id="Line-9"></path>
                            <path d="M0.326923077,8.75 L0.326923077,9.90384615" id="Line-5"></path>
                        </g>
                        <g id="Line-9-+-Line-6" transform="translate(5.133892, 5.071991) rotate(-225.000000) translate(-5.133892, -5.071991) translate(4.633892, 0.071991)">
                            <path d="M0.326923077,0.0961538462 L0.326923077,1.25" id="Line-9"></path>
                            <path d="M0.326923077,8.75 L0.326923077,9.90384615" id="Line-5"></path>
                        </g>
                        <g id="Line-9-+-Line-7" transform="translate(5.133892, 4.928009) rotate(-135.000000) translate(-5.133892, -4.928009) translate(4.633892, -0.071991)">
                            <path d="M0.326923077,8.75 L0.326923077,9.90384615" id="Line-5"></path>
                            <path d="M0.500000099,4.54747351e-13 L0.499999901,1.153846" id="Line-5"></path>
                        </g>
                    </g>
                </g>
            </g>
        </g>
    </g>
</svg>