<?xml version="1.0" encoding="UTF-8"?>
<svg width="16px" height="15px" viewBox="0 0 16 15" version="1.1" xmlns="http://www.w3.org/2000/svg" xmlns:xlink="http://www.w3.org/1999/xlink">
    <!-- Generator: Sketch 52.2 (67145) - http://www.bohemiancoding.com/sketch -->
    <title>ic_home</title>
    <desc>Created with Sketch.</desc>
    <g id="Page-1" stroke="none" stroke-width="1" fill="none" fill-rule="evenodd">
        <g id="atom/ic/moon" transform="translate(-1.000000, -1.000000)" fill="#FFFFFF">
            <g id="noun_Home_1221669" transform="translate(0.125000, 0.250000)">
                <g id="Group-7" transform="translate(1.000000, 1.000000)">
                    <path d="M15.3698276,5.33840849 L8.92241379,0.381007958 C8.34172135,-0.0774731312 7.48586485,-0.0774731312 6.90517241,0.381007958 L6.36362069,0.797824934 C4.39706897,2.31230769 2.42689655,3.8272679 0.453103448,5.34270557 C0.256439557,5.48666549 0.145801944,5.70847263 0.155172414,5.94 C0.155172414,6.22647215 0.155172414,6.5129443 0.155172414,6.80801061 C0.155172414,7.15034483 0.265344828,7.246313 0.640862069,7.23771883 C1.08465517,7.23771883 1.52689655,7.23771883 1.97068966,7.23771883 C2.18482759,7.23771883 2.22362069,7.27496021 2.22517241,7.47405836 L2.22517241,9.73289125 C2.22517241,10.4423873 2.22517241,12.5014069 2.22517241,13.209948 C2.22517241,13.8287278 2.62862069,14.2040061 3.30206897,14.2025737 C4.16689655,14.2025737 5.03068966,14.2025737 5.89344828,14.2025737 C5.95430536,14.2027653 6.01506083,14.1979721 6.075,14.1882502 L6.075,9.63262599 L9.75413793,9.63262599 L9.75413793,14.1882502 C9.81099462,14.197467 9.86865672,14.2017817 9.92637931,14.2011405 C10.8062069,14.2011405 11.6875862,14.2011405 12.5643103,14.2011405 C12.8453322,14.21639 13.1199685,14.1197837 13.3187271,13.9357665 C13.5174858,13.7517493 13.6213233,13.4979532 13.6039655,13.238595 L13.6039655,7.48981432 C13.6039655,7.27925729 13.6396552,7.24344828 13.8646552,7.24344828 C14.3301724,7.24344828 14.8065517,7.24344828 15.2782759,7.24344828 C15.387984,7.25908321 15.4991579,7.22518418 15.5771902,7.15230362 C15.6552225,7.07942306 15.6906386,6.97641005 15.6724138,6.87533156 C15.6724138,6.55448276 15.6724138,6.23363395 15.6724138,5.91135279 C15.6742538,5.68718257 15.562274,5.47514981 15.3698276,5.33840849 Z" id="Path"></path>
                    <path d="M10.5843103,1.14588859 C11.0498276,1.4996817 11.5153448,1.86206897 11.9808621,2.21586207 L13.1896552,3.15119363 C13.1896552,2.26885942 13.1896552,1.43236074 13.1896552,0.584403183 C13.1779163,0.340505562 12.9575331,0.149789311 12.6931034,0.15469496 C12.1158621,0.146100796 11.5386207,0.146100796 10.9613793,0.15469496 C10.8245348,0.153620178 10.6933909,0.20521619 10.5994615,0.297084497 C10.505532,0.388952804 10.4573086,0.512788126 10.4663793,0.638832891 C10.4663793,0.737665782 10.4741379,0.836498674 10.4663793,0.933899204 C10.4613937,1.01902388 10.506458,1.10003012 10.5843103,1.14588859 Z" id="Path"></path>
                </g>
            </g>
        </g>
    </g>
</svg>