<?xml version="1.0" encoding="UTF-8"?>
<svg width="16px" height="18px" viewBox="0 0 16 18" version="1.1" xmlns="http://www.w3.org/2000/svg" xmlns:xlink="http://www.w3.org/1999/xlink">
    <!-- Generator: Sketch 52.2 (67145) - http://www.bohemiancoding.com/sketch -->
    <title>ic_moon</title>
    <desc>Created with Sketch.</desc>
    <g id="Page-1" stroke="none" stroke-width="1" fill="none" fill-rule="evenodd">
        <g id="Group-8" fill="#FFFFFF">
            <g id="atom/ic/moon">
                <g id="noun_Night_936049" transform="translate(0.125000, 0.000000)">
                    <g id="Group">
                        <path d="M10.6714492,2.75492483 C13.7332492,3.70049273 15.8717915,6.65134604 15.8717915,9.93135921 C15.8717915,14.0649391 12.5930476,17.4277533 8.56280728,17.4277533 C5.81795146,17.4277533 3.3289101,15.8688441 2.06744586,13.360278 C1.94518649,13.116986 1.97641579,12.8225821 2.14684801,12.6123423 C2.31728023,12.4017618 2.59369273,12.315894 2.84950718,12.3952876 C3.41229897,12.5690677 3.99303099,12.6573207 4.57608859,12.6573207 C7.87343717,12.6573207 10.5561666,9.90580332 10.5561666,6.52390734 C10.5561666,5.54187971 10.3319137,4.59869704 9.88972014,3.72025595 C9.76746077,3.47696388 9.79835784,3.18256004 9.96912229,2.97197952 C10.1392223,2.76139899 10.4172959,2.67621269 10.6714492,2.75492483 Z M3.32226557,5.84241697 L6.64453114,5.84241697 C6.90233894,5.84241697 7.13689089,5.99541156 7.24619343,6.23495542 C7.3558282,6.47415854 7.32027995,6.75697705 7.15516335,6.96006118 L4.74087297,9.93101846 L6.64453114,9.93101846 C7.01130926,9.93101846 7.30898425,10.2363261 7.30898425,10.6125088 C7.30898425,10.9886915 7.01130926,11.2939992 6.64453114,11.2939992 L3.32226557,11.2939992 C3.06445776,11.2939992 2.82990581,11.1410046 2.72060327,10.9018015 C2.61096851,10.6622576 2.64651675,10.3794391 2.81163335,10.176355 L5.22592374,7.20539771 L3.32226557,7.20539771 C2.95548745,7.20539771 2.65781245,6.90009003 2.65781245,6.52390734 C2.65781245,6.14772465 2.95548745,5.84241697 3.32226557,5.84241697 Z M3.32226557,4.77043261 C3.32226557,5.14695604 3.0249228,5.45192298 2.65781245,5.45192298 L0.664453114,5.45192298 C0.41295761,5.45192298 0.182724606,5.30608404 0.0700998035,5.07539955 C-0.0421927727,4.84437432 -0.0182724606,4.56802997 0.132890623,4.36153839 L1.32890623,2.72596149 L0.664453114,2.72596149 C0.297674995,2.72596149 2.22044605e-16,2.4206538 2.22044605e-16,2.04447112 C2.22044605e-16,1.66828843 0.297674995,1.36298075 0.664453114,1.36298075 L2.65781245,1.36298075 C2.90930796,1.36298075 3.13954096,1.50881969 3.25216576,1.73950418 C3.36445834,1.97052941 3.34053803,2.24687376 3.18937495,2.45336534 L1.99335934,4.08894224 L2.65781245,4.08894224 C3.02459057,4.08894224 3.32226557,4.39424993 3.32226557,4.77043261 Z M4.6511718,1.36298075 C4.28439368,1.36298075 3.98671868,1.05767306 3.98671868,0.681490373 C3.98671868,0.305307687 4.28439368,-8.65973959e-15 4.6511718,-8.65973959e-15 L5.98007802,-8.65973959e-15 C6.22526122,-8.65973959e-15 6.4501786,0.138342546 6.56579344,0.359826917 C6.68140828,0.581311288 6.66878368,0.85015924 6.53290301,1.05937678 L5.89270244,2.04447112 L5.98007802,2.04447112 C6.34685614,2.04447112 6.64453114,2.34977881 6.64453114,2.72596149 C6.64453114,3.10214418 6.34685614,3.40745187 5.98007802,3.40745187 L4.6511718,3.40745187 C4.4059886,3.40745187 4.18107122,3.26910932 4.06545638,3.04762495 C3.94984153,2.82614058 3.96246614,2.55729262 4.09834681,2.34807508 L4.73854738,1.36298075 L4.6511718,1.36298075 Z" id="Combined-Shape"></path>
                    </g>
                </g>
            </g>
        </g>
    </g>
</svg>