<?xml version="1.0" encoding="UTF-8"?>
<svg width="17px" height="19px" viewBox="0 0 17 19" version="1.1" xmlns="http://www.w3.org/2000/svg" xmlns:xlink="http://www.w3.org/1999/xlink">
    <!-- Generator: Sketch 52.2 (67145) - http://www.bohemiancoding.com/sketch -->
    <title>ic_outdoor</title>
    <desc>Created with Sketch.</desc>
    <g id="Page-1" stroke="none" stroke-width="1" fill="none" fill-rule="evenodd">
        <g id="atom/ic/away" transform="translate(-2.000000, 0.000000)" fill="#FFFFFF">
            <g id="noun_Exit_1784928" transform="translate(10.125000, 10.125000) scale(-1, 1) translate(-10.125000, -10.125000) translate(1.125000, 0.000000)">
                <g id="Group" transform="translate(0.797012, 0.000000)">
                    <path d="M15.2120991,2.02310924 L8.93440233,0.113445378 C8.61953353,0.018907563 8.28498542,0.245798319 8.28498542,0.567226891 L8.28498542,1.45588235 L5.21501458,1.45588235 C4.93950437,1.45588235 4.72303207,1.66386555 4.72303207,1.92857143 L4.72303207,7.54411765 L5.78571429,7.54411765 L5.78571429,2.47689076 L8.30466472,2.47689076 L8.30466472,15.6743697 L5.76603499,15.6743697 L5.76603499,10.6071429 L4.70335277,10.6071429 L4.70335277,16.2226891 C4.70335277,16.487395 4.91982507,16.6953782 5.19533528,16.6953782 L8.26530612,16.6953782 L8.26530612,17.5840336 C8.26530612,17.9054622 8.59985423,18.1323529 8.91472303,18.0378151 L15.1924198,16.1281513 C15.4088921,16.0714286 15.5466472,15.8823529 15.5466472,15.6743697 L15.5466472,2.49579832 C15.5466472,2.28781513 15.4088921,2.0987395 15.2120991,2.02310924 Z M10.3709913,9.64285714 C10.0364431,9.64285714 9.78061224,9.37815126 9.78061224,9.07563025 C9.78061224,8.75420168 10.0561224,8.50840336 10.3709913,8.50840336 C10.6858601,8.50840336 10.9810496,8.77310924 10.9810496,9.07563025 C10.9810496,9.39705882 10.7055394,9.64285714 10.3709913,9.64285714 Z" id="Shape" fill-rule="nonzero"></path>
                    <path d="M7.28134111,9.92647059 C7.43877551,9.92647059 7.57653061,9.79411765 7.57653061,9.64285714 L7.57653061,8.50840336 C7.57653061,8.35714286 7.43877551,8.22478992 7.28134111,8.22478992 L3.42419825,8.22478992 L3.42419825,7.09033613 C3.42419825,6.80672269 3.08965015,6.65546218 2.85349854,6.82563025 L0.314868805,8.81092437 C0.137755102,8.94327731 0.137755102,9.20798319 0.314868805,9.34033613 L2.85349854,11.3256303 C3.08965015,11.4957983 3.42419825,11.3445378 3.42419825,11.0609244 L3.42419825,9.92647059 L7.28134111,9.92647059 Z" id="Path"></path>
                </g>
            </g>
        </g>
    </g>
</svg>