<?xml version="1.0" encoding="UTF-8"?>
<svg width="29px" height="24px" viewBox="0 0 29 24" version="1.1" xmlns="http://www.w3.org/2000/svg" xmlns:xlink="http://www.w3.org/1999/xlink">
    <!-- Generator: Sketch 52.2 (67145) - http://www.bohemiancoding.com/sketch -->
    <title>ic_question_all</title>
    <desc>Created with Sketch.</desc>
    <defs>
        <filter x="-40.4%" y="-48.7%" width="180.8%" height="197.5%" filterUnits="objectBoundingBox" id="filter-1">
            <feGaussianBlur stdDeviation="3.87096774" in="SourceGraphic"></feGaussianBlur>
        </filter>
    </defs>
    <g id="Page-1" stroke="none" stroke-width="1" fill="none" fill-rule="evenodd">
        <g id="noun_Question_622247-Copy-2" fill-rule="nonzero">
            <path d="M28.2945946,17.9612903 L17.8702703,1.93548387 C16.3027027,-0.464516129 12.7756757,-0.464516129 11.2472973,1.93548387 L0.822972973,17.9612903 C-0.862162162,20.5548387 1.01891892,23.9612903 4.15405405,23.9612903 L24.9635135,23.9612903 C28.0986486,23.9612903 29.9797297,20.5548387 28.2945946,17.9612903 Z" id="Shape" fill="#F0F4F7" filter="url(#filter-1)"></path>
            <g id="Group-6">
                <path d="M28.2945946,17.9612903 L17.8702703,1.93548387 C16.3027027,-0.464516129 12.7756757,-0.464516129 11.2472973,1.93548387 L0.822972973,17.9612903 C-0.862162162,20.5548387 1.01891892,23.9612903 4.15405405,23.9612903 L24.9635135,23.9612903 C28.0986486,23.9612903 29.9797297,20.5548387 28.2945946,17.9612903 Z" id="Shape" fill="#F0F4F7"></path>
                <path d="M15.322973,18.9290323 L13.9905405,18.9290323 L13.9905405,17.5354839 L15.322973,17.5354839 L15.322973,18.9290323 Z M17.1256757,13.083871 C16.8121622,13.5483871 16.3810811,14.0516129 15.8324324,14.5935484 C15.5581081,14.8258065 15.4405405,15.0580645 15.3621622,15.2516129 C15.2837838,15.4451613 15.2837838,15.7548387 15.2837838,16.1806452 L13.9905405,16.1806452 C13.9905405,15.5225806 14.0297297,15.0580645 14.1472973,14.8258065 C14.2648649,14.5935484 14.5391892,14.2451613 15.0094595,13.8193548 C15.4797297,13.2774194 15.7932432,12.8903226 15.9891892,12.5806452 C16.1851351,12.2709677 16.2635135,11.9225806 16.2635135,11.5354839 C16.2635135,11.0322581 16.1459459,10.6451613 15.8716216,10.3741935 C15.5972973,10.1032258 15.2445946,9.98709677 14.7351351,9.98709677 C14.3040541,9.98709677 13.9121622,10.1032258 13.6378378,10.3354839 C13.3635135,10.5677419 13.2067568,10.916129 13.2067568,11.3419355 L11.9135135,11.3419355 C11.9135135,10.5677419 12.1878378,9.98709677 12.6972973,9.52258065 C13.2067568,9.05806452 13.9121622,8.86451613 14.7351351,8.86451613 C15.6364865,8.86451613 16.3418919,9.09677419 16.8121622,9.52258065 C17.2824324,9.9483871 17.5567568,10.6064516 17.5567568,11.4193548 C17.5959459,12.0774194 17.4391892,12.6193548 17.1256757,13.083871 Z" id="Combined-Shape" stroke="#00C5DE" stroke-width="0.4" fill="#00C5DE" stroke-linecap="round" stroke-linejoin="round"></path>
            </g>
        </g>
    </g>
</svg>