<?xml version="1.0" encoding="UTF-8"?>
<svg width="7px" height="12px" viewBox="0 0 7 12" version="1.1" xmlns="http://www.w3.org/2000/svg" xmlns:xlink="http://www.w3.org/1999/xlink">
    <!-- Generator: Sketch 52.2 (67145) - http://www.bohemiancoding.com/sketch -->
    <title>ic_question</title>
    <desc>Created with Sketch.</desc>
    <g id="Page-1" stroke="none" stroke-width="1" fill="none" fill-rule="evenodd" stroke-linecap="round" stroke-linejoin="round">
        <g id="noun_Question_622247" fill="#00C5DE" fill-rule="nonzero" stroke="#00C5DE" stroke-width="0.4">
            <g id="Group-6">
                <path d="M4.32297297,10.9290323 L2.99054054,10.9290323 L2.99054054,9.53548387 L4.32297297,9.53548387 L4.32297297,10.9290323 Z M6.12567568,5.08387097 C5.81216216,5.5483871 5.38108108,6.0516129 4.83243243,6.59354839 C4.55810811,6.82580645 4.44054054,7.05806452 4.36216216,7.2516129 C4.28378378,7.44516129 4.28378378,7.75483871 4.28378378,8.18064516 L2.99054054,8.18064516 C2.99054054,7.52258065 3.02972973,7.05806452 3.1472973,6.82580645 C3.26486486,6.59354839 3.53918919,6.24516129 4.00945946,5.81935484 C4.47972973,5.27741935 4.79324324,4.89032258 4.98918919,4.58064516 C5.18513514,4.27096774 5.26351351,3.92258065 5.26351351,3.53548387 C5.26351351,3.03225806 5.14594595,2.64516129 4.87162162,2.37419355 C4.5972973,2.10322581 4.24459459,1.98709677 3.73513514,1.98709677 C3.30405405,1.98709677 2.91216216,2.10322581 2.63783784,2.33548387 C2.36351351,2.56774194 2.20675676,2.91612903 2.20675676,3.34193548 L0.913513514,3.34193548 C0.913513514,2.56774194 1.18783784,1.98709677 1.6972973,1.52258065 C2.20675676,1.05806452 2.91216216,0.864516129 3.73513514,0.864516129 C4.63648649,0.864516129 5.34189189,1.09677419 5.81216216,1.52258065 C6.28243243,1.9483871 6.55675676,2.60645161 6.55675676,3.41935484 C6.59594595,4.07741935 6.43918919,4.61935484 6.12567568,5.08387097 Z" id="Combined-Shape"></path>
            </g>
        </g>
    </g>
</svg>